<?xml version="1.0" encoding="UTF-8" standalone="no"?>
<!-- Created with Inkscape (http://www.inkscape.org/) -->

<svg
   width="134.94365mm"
   height="122.76489mm"
   viewBox="0 0 134.94365 122.76489"
   version="1.1"
   id="svg1"
   inkscape:version="1.4.2 (ebf0e940, 2025-05-08)"
   sodipodi:docname="argus_icon.svg"
   xmlns:inkscape="http://www.inkscape.org/namespaces/inkscape"
   xmlns:sodipodi="http://sodipodi.sourceforge.net/DTD/sodipodi-0.dtd"
   xmlns="http://www.w3.org/2000/svg"
   xmlns:svg="http://www.w3.org/2000/svg">
  <sodipodi:namedview
     id="namedview1"
     pagecolor="#ffffff"
     bordercolor="#000000"
     borderopacity="0.25"
     inkscape:showpageshadow="2"
     inkscape:pageopacity="0.0"
     inkscape:pagecheckerboard="0"
     inkscape:deskcolor="#d1d1d1"
     inkscape:document-units="mm"
     inkscape:zoom="0.46150282"
     inkscape:cx="374.86228"
     inkscape:cy="238.35174"
     inkscape:window-width="1272"
     inkscape:window-height="691"
     inkscape:window-x="0"
     inkscape:window-y="38"
     inkscape:window-maximized="0"
     inkscape:current-layer="layer1">
    <inkscape:page
       x="0"
       y="0"
       width="134.94365"
       height="122.76489"
       id="page2"
       margin="0"
       bleed="0" />
  </sodipodi:namedview>
  <defs
     id="defs1" />
  <g
     inkscape:label="Layer 1"
     inkscape:groupmode="layer"
     id="layer1"
     transform="translate(-42.161546,-78.625931)">
    <path
       style="fill:#000000;stroke-width:0.264583"
       d="m 71.503523,200.92783 -0.694389,-0.46128 4.016984,-6.48229 c 4.227655,-6.82226 14.18877,-22.98507 15.202696,-24.66775 l 0.595061,-0.98755 -1.010899,-0.45982 c -0.555992,-0.2529 -1.049181,-0.48179 -1.095973,-0.50864 -0.04679,-0.0268 0.18197,-0.45621 0.508358,-0.95412 l 0.593434,-0.90529 1.000215,0.48325 c 0.550119,0.26579 1.048641,0.48325 1.107828,0.48325 0.121042,0 1.99108,-2.77365 2.098038,-3.11182 0.03788,-0.11976 -0.742641,-0.90704 -1.734487,-1.7495 l -1.803357,-1.53175 -7.190627,7.09914 c -3.954843,3.90453 -10.22755,10.07384 -13.93935,13.70958 -3.7118,3.63575 -9.343986,9.17215 -12.515972,12.30313 -3.171984,3.13097 -5.80004,5.7212 -5.840121,5.75607 -0.04008,0.0349 -0.393764,-0.27155 -0.785958,-0.68091 L 49.301923,197.51723 68.952,178.23164 c 10.807544,-10.60708 19.687908,-19.37362 19.734146,-19.48119 0.04624,-0.10757 -0.412689,-0.85354 -1.019834,-1.65769 -0.995256,-1.31821 -1.159769,-1.43281 -1.671566,-1.16441 -0.637997,0.33458 -12.103144,6.90984 -20.146835,11.55421 -2.910417,1.68046 -6.482292,3.73279 -7.9375,4.56074 l -2.645833,1.50537 v 2.87561 2.8756 l 3.519649,0.13229 3.519646,0.1323 -1.006197,0.98138 c -1.001528,0.97683 -1.017868,0.98174 -3.519647,1.05834 l -2.513451,0.0769 -0.07498,2.67416 c -0.06847,2.44189 -0.130998,2.72679 -0.71985,3.27999 -0.531156,0.49899 -0.715391,0.54728 -1.044855,0.27385 -0.332634,-0.27606 -0.411911,-1.39494 -0.470776,-6.64427 l -0.07079,-6.3123 -4.094794,2.35069 c -2.252138,1.29289 -4.187751,2.29325 -4.30136,2.22303 -0.113612,-0.0702 -0.382162,-0.46723 -0.596781,-0.88225 l -0.390213,-0.75459 8.660325,-4.9692 c 16.020928,-9.19262 22.682896,-13.08077 22.742007,-13.273 0.03232,-0.10511 -0.560086,-0.60783 -1.316458,-1.11715 -2.572269,-1.7321 -6.671776,-4.83877 -9.722518,-7.36788 -3.970493,-3.2916 -11.112499,-10.39112 -11.112499,-11.0464 0,-1.26775 12.171322,-12.1529 19.011575,-17.00259 1.912905,-1.35624 3.478008,-2.50287 3.478008,-2.54807 0,-0.0452 -1.934765,-1.17893 -4.299479,-2.51939 -2.364714,-1.34046 -5.490105,-3.12386 -6.945313,-3.96312 -1.455208,-0.83926 -4.491302,-2.56936 -6.746875,-3.84468 -2.255573,-1.27531 -5.47026,-3.09534 -7.14375,-4.04451 -1.673488,-0.94916 -3.896798,-2.20719 -4.94069,-2.79561 -1.978107,-1.11502 -1.996724,-1.1549 -1.097966,-2.35167 0.323768,-0.43112 0.665083,-0.28677 4.535451,1.91823 2.301932,1.31144 4.236698,2.38444 4.299478,2.38444 0.06278,0 0.114144,-3.52017 0.114144,-7.822604 0,-4.886344 0.102809,-8.014698 0.273894,-8.334374 0.200088,-0.373869 0.556567,-0.511773 1.322917,-0.511773 1.047472,0 1.049022,0.0016 1.049022,1.058334 0,0.582082 -0.119062,1.058332 -0.264583,1.058332 -0.163788,0 -0.264583,1.411112 -0.264583,3.704166 v 3.704167 h 2.248958 2.248958 v -3.691715 c 0,-2.298693 0.119274,-3.953497 0.316095,-4.385469 0.654828,-1.437189 0.756089,-1.447815 13.796664,-1.447815 11.059523,0 12.067352,0.03708 12.584023,0.463021 0.308909,0.254662 1.368544,2.36802 2.354746,4.696353 l 1.793097,4.233333 25.063803,0.132292 25.0638,0.132292 -0.81787,0.992187 -0.81788,0.992183 h -14.14363 -14.14362 l 0.0738,3.49965 0.0738,3.49965 2.91041,0.34099 c 1.60073,0.18754 4.27964,0.70515 5.95313,1.15025 3.12199,0.83035 8.34802,2.74511 8.5985,3.15039 0.0772,0.12487 -0.13364,0.54552 -0.46848,0.93479 l -0.60879,0.70776 -3.29759,-1.1953 c -4.01285,-1.45455 -6.76126,-2.17155 -9.94092,-2.59337 -3.00136,-0.39816 -3.33706,-0.29208 -3.22851,1.02026 l 0.0822,0.99431 1.57976,0.19622 c 2.33933,0.29056 6.59633,1.44653 8.49144,2.30582 1.78997,0.81161 5.16134,2.89566 6.14107,3.79618 0.59606,0.54786 0.60653,0.54822 1.08871,0.0379 1.90069,-2.01161 12.16944,-13.58265 21.58979,-24.327787 8.76973,-10.003025 10.22879,-11.633249 10.50386,-11.736164 0.13892,-0.05197 0.53697,0.172671 0.88456,0.499212 l 0.63197,0.593711 -0.71703,0.845787 c -2.92191,3.446569 -3.49517,4.16506 -3.49517,4.380679 0,0.13633 1.90011,0.276422 4.29949,0.316993 l 4.29947,0.0727 0.0721,4.828644 c 0.0397,2.655756 0.16578,4.828646 0.28027,4.828646 0.11449,0 1.9261,-1.250156 4.0258,-2.778125 2.09971,-1.527969 3.88924,-2.778125 3.97674,-2.778125 0.1634,0 0.87299,1.305449 0.89385,1.644433 0.006,0.104074 -2.01242,1.663113 -4.48628,3.464531 l -4.49791,3.275305 -0.0682,16.23248 -0.0682,16.23247 -1.05628,-1.03143 -1.05628,-1.03143 v -14.2338 c 0,-7.82859 -0.0705,-14.23381 -0.15664,-14.23381 -0.18118,0 -2.14408,1.41105 -18.03347,12.96353 -2.07367,1.50767 -3.77031,2.82119 -3.77031,2.91893 0,0.0977 1.0418,0.87015 2.3151,1.71648 3.25123,2.16099 8.11062,5.86077 11.41392,8.69017 3.89481,3.33605 10.61869,10.00089 10.61538,10.52218 -0.002,0.23709 -1.29604,1.7849 -2.87674,3.43958 -4.70773,4.92804 -10.07018,9.50296 -16.71599,14.26106 -1.88582,1.35015 -3.42875,2.53016 -3.42875,2.62224 0,0.19152 1.21562,0.93175 14.75052,8.98208 5.42065,3.22411 9.85573,5.90718 9.85573,5.96238 0,0.0552 -0.41672,0.34623 -0.92604,0.64673 -0.50933,0.30051 -0.92613,0.69923 -0.92623,0.88603 -1e-4,0.18681 -0.32522,0.35854 -0.72248,0.38161 -0.68514,0.0398 -9.22512,4.25406 -10.40836,5.13626 -0.54297,0.40483 -0.36175,0.60759 6.9201,7.74285 l 7.47768,7.32713 -0.75504,0.78809 -0.75504,0.78809 -6.91515,-6.88449 c -6.469,-6.4403 -7.98749,-7.8549 -8.18469,-7.62468 -0.0439,0.0512 -1.36698,2.92374 -2.94024,6.38339 -1.57326,3.45964 -2.97209,6.25305 -3.10851,6.20758 -0.13641,-0.0455 -4.13365,-6.53793 -8.88274,-14.42769 -7.3561,-12.22081 -8.71308,-14.32818 -9.16389,-14.23138 -0.29104,0.0625 -1.64519,0.54727 -3.00922,1.07728 -3.62555,1.40876 -8.74703,2.72761 -12.07203,3.10871 l -2.91042,0.33357 v 3.175 3.175 l 10.42241,0.13229 10.42241,0.1323 0.6278,0.99218 0.6278,0.99219 H 111.2185 89.509503 l 0.30789,-0.59531 c 0.827416,-1.59982 0.314818,-1.52136 9.938192,-1.52136 h 8.822535 l 0.0496,-2.51354 c 0.0273,-1.38245 0.0571,-2.84022 0.0661,-3.23949 l 0.0165,-0.72596 -2.9878,-0.32962 c -3.36027,-0.3707 -5.914459,-0.9704 -9.887787,-2.32157 -1.494414,-0.50819 -2.861863,-0.92398 -3.038776,-0.92398 -0.176911,0 -1.182399,1.39898 -2.234417,3.10885 -16.10124,26.16973 -17.822934,28.90732 -18.177994,28.90399 -0.102148,-10e-4 -0.4982,-0.20932 -0.880115,-0.46302 z m 75.878577,-9.25349 c 1.02497,-2.4531 4.39758,-9.76128 4.64021,-10.055 0.14829,-0.1795 2.87605,-1.66004 6.06168,-3.29007 3.18563,-1.63004 5.79205,-3.03468 5.79205,-3.12143 0,-0.0867 -1.10133,-0.80533 -2.4474,-1.59685 -1.34607,-0.79152 -4.23333,-2.49815 -6.41615,-3.7925 -17.06136,-10.11697 -22.35677,-13.18613 -22.59012,-13.09297 -0.1168,0.0466 -1.22736,1.15634 -2.46791,2.46603 l -2.25554,2.38125 5.7262,9.525 c 3.1494,5.23875 6.59826,10.95375 7.66412,12.7 1.06586,1.74625 2.70425,4.45492 3.64087,6.01927 0.93661,1.56435 1.82369,2.84427 1.97127,2.84427 0.14758,0 0.4539,-0.44415 0.68072,-0.987 z m -38.72851,-21.17185 c 0.0587,-0.10914 0.0552,-0.68317 -0.008,-1.27561 l -0.11436,-1.07717 -2.42412,-0.34021 c -2.9312,-0.41138 -6.03242,-1.35014 -8.45794,-2.56028 -0.99027,-0.49406 -1.843262,-0.8983 -1.895536,-0.8983 -0.159502,0 -1.727933,2.63651 -1.727933,2.90463 0,0.39322 6.448289,2.3627 9.524999,2.90919 2.97817,0.52898 4.93025,0.6582 5.10256,0.33775 z m 6.53911,-0.20971 c 1.38245,-0.22331 3.34698,-0.64895 4.36563,-0.94587 2.63561,-0.76824 7.88933,-2.64214 8.19782,-2.92399 0.16703,-0.1526 -0.013,-0.73247 -0.50235,-1.61794 -1.2046,-2.17979 -1.04714,-2.13829 -3.09279,-0.81497 -3.12223,2.01976 -6.69164,3.272 -11.08497,3.88887 l -2.24896,0.31579 -0.0806,1.25313 -0.0806,1.25312 1.00668,-0.001 c 0.55368,-5.3e-4 2.13778,-0.18377 3.52023,-0.40708 z m 0.4291,-5.01685 c 16.19456,-4.10498 24.45772,-21.80464 17.16903,-36.77605 -1.13607,-2.33356 -4.44167,-6.86267 -4.88858,-6.698 -0.12452,0.0459 -2.0431,2.14801 -4.26352,4.67141 l -4.03711,4.58798 0.30908,0.85476 c 0.17,0.47012 0.30915,1.26302 0.30922,1.76201 7e-5,0.49899 0.24722,1.55737 0.54922,2.35195 1.84048,4.84239 -0.0556,10.80822 -4.37068,13.75226 -1.97999,1.35088 -4.00141,1.9487 -6.62972,1.9607 -2.69456,0.0123 -4.56329,-0.53201 -6.64137,-1.93449 -0.67393,-0.45483 -1.32009,-0.79189 -1.4359,-0.74902 -0.38736,0.14338 -9.782101,9.26656 -9.782101,9.49934 0,0.48812 4.155311,3.49896 6.321878,4.58068 4.138003,2.06603 6.977553,2.74782 11.569713,2.77793 2.59911,0.017 3.70278,-0.10458 5.82084,-0.64146 z m -10.53395,-5.83219 c -1.67949,-0.40729 -4.81095,-1.75481 -5.07653,-2.18452 -0.09461,-0.15308 0.10354,-0.59867 0.44032,-0.99021 l 0.61233,-0.71187 1.37988,0.69924 c 2.07221,1.05007 4.37828,1.55134 7.1926,1.56346 3.14392,0.0136 4.76296,-0.36228 7.91793,-1.83796 2.13089,-0.99669 2.80513,-1.48353 4.63135,-3.34405 1.23413,-1.25731 2.49074,-2.84841 2.97353,-3.76503 2.64973,-5.03078 3.01067,-10.50148 1.01997,-15.4594 -0.49728,-1.23849 -0.88073,-2.26164 -0.85211,-2.27367 0.0286,-0.012 0.39219,-0.23505 0.80793,-0.4956 0.41574,-0.26054 0.85477,-0.37334 0.97563,-0.25065 0.47787,0.48509 1.82088,4.29276 2.11863,6.00663 0.50361,2.89895 0.21159,7.28935 -0.65337,9.82295 -2.30776,6.75983 -7.39599,11.46692 -14.29872,13.2277 -1.9725,0.50315 -7.10177,0.49923 -9.18937,-0.007 z m 40.16609,-3.14128 c 6.82707,-4.77964 14.88715,-11.6574 17.73681,-15.13504 l 0.97258,-1.1869 -1.565,-1.59403 c -2.43264,-2.47776 -7.97352,-7.43781 -10.99643,-9.84373 -4.56339,-3.63197 -10.66138,-7.84809 -11.35109,-7.84809 -0.29655,0 -1.91662,1.08754 -5.22309,3.5062 l -1.39935,1.02362 0.78336,1.37312 c 2.50976,4.39924 3.78749,10.80539 3.22944,16.19143 -0.384,3.70617 -1.15603,6.4636 -2.64105,9.43288 l -1.27801,2.55536 2.80769,1.65049 c 1.54423,0.90776 3.16488,1.8692 3.60144,2.13653 0.43657,0.26732 0.92678,0.48805 1.08937,0.4905 0.16259,0.002 2.06759,-1.2361 4.23333,-2.75234 z m -5.20783,-1.91217 -0.67889,-0.42156 0.90954,-2.41567 c 2.98335,-7.92357 2.76949,-17.15941 -0.57479,-24.82328 l -0.42605,-0.97635 0.80591,-0.57387 c 0.44326,-0.31562 0.84396,-0.53111 0.89046,-0.47885 0.78055,0.87726 2.5015,6.18673 3.07523,9.48771 0.49974,2.87526 0.43831,9.14318 -0.11766,12.00521 -0.7481,3.8511 -2.42266,8.64674 -3.01181,8.62526 -0.10618,-0.004 -0.49856,-0.19674 -0.87194,-0.4286 z m -58.13467,1.45842 c 1.78808,-1.03636 3.298417,-1.92633 3.356303,-1.97771 0.05789,-0.0514 -0.331629,-1.04916 -0.865592,-2.21728 -1.491576,-3.26304 -2.275822,-6.51396 -2.461813,-10.20489 -0.250336,-4.96779 0.473794,-8.79191 2.489866,-13.149 0.522251,-1.12867 0.900663,-2.09677 0.840918,-2.15133 -0.05974,-0.0546 -1.808925,-1.08028 -3.887071,-2.2794 l -3.778443,-2.18021 -1.513223,1.00371 c -4.766871,3.16184 -11.417306,8.45874 -15.919969,12.67983 -3.882583,3.63978 -4.777415,4.66813 -4.504992,5.17715 0.340067,0.63542 5.389907,5.43199 8.507569,8.08087 3.381158,2.87276 6.884091,5.56963 10.404168,8.01005 2.547419,1.76609 2.67253,1.82052 3.363529,1.46341 0.394732,-0.204 2.180669,-1.21884 3.96875,-2.2552 z m -4.159843,-2.34985 c -0.377841,-0.61136 -1.713783,-4.90081 -2.160312,-6.93635 -0.364765,-1.6628 -0.477629,-3.29844 -0.470456,-6.81784 0.0086,-4.1985 0.07908,-4.90156 0.756341,-7.54062 0.622948,-2.42741 1.589894,-5.35683 1.85624,-5.62359 0.142954,-0.14317 1.740543,0.52762 1.740543,0.73082 0,0.11817 -0.340921,1.26738 -0.757606,2.55381 -1.200205,3.7054 -1.489429,5.67872 -1.486786,10.14417 0.0027,4.51479 0.394153,6.97803 1.713971,10.78459 l 0.757812,2.18564 -0.762014,0.39405 c -0.903734,0.46734 -0.971907,0.47453 -1.187733,0.12532 z m 17.614008,-1.38744 4.853605,-4.69887 -0.751253,-1.51883 c -1.929543,-3.90099 -1.961206,-7.88368 -0.09185,-11.55359 0.752743,-1.47778 2.969763,-3.73303 4.569533,-4.64833 2.61625,-1.49686 6.69787,-1.95742 9.0672,-1.02311 0.39856,0.15717 1.49856,0.37917 2.44444,0.49336 0.94589,0.11417 1.90295,0.28285 2.1268,0.37484 0.35842,0.14728 4.10445,-3.81461 8.03593,-8.49899 l 0.7112,-0.8474 -1.66665,-1.2237 c -6.09764,-4.47706 -13.9967,-5.95439 -21.37811,-3.99825 -4.654219,1.23341 -7.815672,3.01737 -11.377038,6.41988 -3.436403,3.28312 -5.767406,7.21151 -7.072196,11.91863 -0.645731,2.32952 -0.719841,3.02943 -0.709676,6.7022 0.0098,3.55388 0.102288,4.43818 0.692949,6.6279 0.374878,1.38977 1.112756,3.43544 1.639729,4.54593 0.931283,1.96249 3.566115,5.81585 3.890566,5.68983 0.08866,-0.0344 2.345332,-2.17711 5.014819,-4.7615 z m -3.415466,-3.04018 c -0.737357,-1.40826 -1.653654,-4.59387 -1.921007,-6.67859 -1.756752,-13.69842 11.181858,-25.23652 24.456578,-21.80934 0.89817,0.23188 2.20047,0.66493 2.89401,0.96234 l 1.26098,0.54073 -0.52267,0.8255 c -0.28747,0.45403 -0.61679,0.82139 -0.73181,0.81636 -0.11503,-0.005 -1.17799,-0.32626 -2.36213,-0.71386 -4.49753,-1.47216 -8.54029,-1.16738 -12.94631,0.97602 -4.383897,2.13265 -7.667053,5.88639 -9.266658,10.5949 -0.626957,1.84547 -0.720632,2.54041 -0.731134,5.42396 -0.01109,3.04106 0.05323,3.48833 0.798777,5.55625 0.445953,1.23692 0.896173,2.44927 1.000493,2.69409 0.139838,0.3282 -0.02103,0.5541 -0.612386,0.8599 -0.999238,0.51673 -1.021334,0.51592 -1.316733,-0.0483 z m 20.153971,0.35662 c 4.53674,-1.06742 7.87114,-5.97241 7.18237,-10.56545 -0.25538,-1.703 -0.49852,-1.98646 -1.17712,-1.37234 -0.77256,0.69916 -3.34062,0.87192 -4.44806,0.29924 -2.12062,-1.09662 -3.00747,-3.82735 -1.92932,-5.9407 0.53422,-1.04715 0.53963,-1.12118 0.0953,-1.30342 -0.25908,-0.10627 -1.36403,-0.18229 -2.45544,-0.16892 -7.63403,0.0935 -11.990697,9.34341 -7.31385,15.52852 0.46409,0.61376 1.5856,1.61502 2.49224,2.22502 2.40602,1.61879 4.59321,1.99464 7.55385,1.29805 z M 87.415747,123.16268 c 1.341448,-1.86794 4.455242,-4.84079 6.503905,-6.20952 3.890637,-2.59936 7.276898,-3.93383 11.791608,-4.64687 l 2.86686,-0.45279 v -1.13566 c 0,-1.10509 -0.0232,-1.13564 -0.8599,-1.1346 -2.93744,0.004 -9.649311,1.68943 -14.332111,3.59974 -3.859207,1.57434 -13.626962,6.77285 -13.642824,7.26087 -0.0047,0.14363 6.331358,3.90712 6.631128,3.93878 0.08447,0.009 0.553072,-0.54006 1.041334,-1.21995 z m 47.279923,-1.43973 c 3.70954,-2.58065 3.61231,-2.24462 1.07547,-3.7172 -1.20444,-0.69916 -2.40688,-1.34342 -2.67208,-1.43171 -0.35798,-0.11917 -0.86912,0.26479 -1.98438,1.49063 -0.8262,0.90813 -1.54145,1.75105 -1.58943,1.87315 -0.0683,0.1737 2.55739,3.3711 2.78917,3.39653 0.0308,0.003 1.10241,-0.72174 2.38125,-1.6114 z m -53.947812,-4.43577 c 9.47534,-5.57783 17.914307,-8.81089 25.118282,-9.62307 l 2.71198,-0.30575 v -3.5183 -3.51831 h -9.506102 c -8.083835,0 -9.565293,-0.0592 -9.901734,-0.395627 -0.217599,-0.217599 -0.79165,-1.370097 -1.27567,-2.561108 -0.484019,-1.191012 -1.300975,-3.126336 -1.815455,-4.30072 l -0.935421,-2.135249 -11.483919,-0.06899 c -6.316155,-0.03795 -11.576802,0.02389 -11.690327,0.137411 -0.113522,0.113525 -0.267663,2.09459 -0.342535,4.402365 -0.08273,2.550131 -0.254293,4.338336 -0.43738,4.558943 -0.22149,0.266875 -1.063241,0.362975 -3.17927,0.362975 h -2.878021 v 3.16966 3.16964 l 1.389062,0.7667 c 1.917087,1.05814 7.418298,4.18431 14.485938,8.2319 3.274219,1.87513 6.109663,3.41792 6.300989,3.42842 0.191322,0.0105 1.739135,-0.79989 3.439583,-1.80089 z m 66.552802,-4.71534 c 14.29347,-10.3727 16.17993,-11.76499 16.2667,-12.00555 0.0522,-0.14484 -2.24515,-0.24454 -5.63487,-0.24454 h -5.72306 l 0.8505,-1.058329 0.8505,-1.058333 h 5.1151 5.11509 V 94.513264 90.82144 l -4.38064,-0.07849 -4.38064,-0.07849 -6.79801,7.660981 c -10.89064,12.273169 -14.40687,16.304389 -14.30333,16.398229 0.2792,0.25308 5.42223,3.05297 5.61433,3.05647 0.12411,0.002 3.45786,-2.34147 7.40833,-5.2083 z m -38.86686,88.17132 c -1.02255,-1.02255 -0.8349,-2.27925 0.43868,-2.93784 0.92013,-0.47582 1.95086,-0.26827 2.48994,0.50137 1.39816,1.99616 -1.20403,4.16106 -2.92862,2.43647 z m -14.090264,-1.78474 c -0.174625,-0.17462 -0.3175,-0.56753 -0.3175,-0.87312 0,-0.30559 0.142875,-0.6985 0.3175,-0.87313 0.174625,-0.17462 0.567531,-0.3175 0.873125,-0.3175 0.305594,0 0.6985,0.14288 0.873125,0.3175 0.174625,0.17463 0.3175,0.56754 0.3175,0.87313 0,0.30559 -0.142875,0.6985 -0.3175,0.87312 -0.174625,0.17463 -0.567531,0.3175 -0.873125,0.3175 -0.305594,0 -0.6985,-0.14287 -0.873125,-0.3175 z m 29.064524,-0.0634 c -0.17385,-0.20948 -0.27772,-0.7155 -0.23083,-1.12448 0.1555,-1.35612 2.33422,-1.08151 2.33422,0.29421 0,1.11107 -1.40882,1.66717 -2.10339,0.83027 z m -39.965357,-7.72507 c 0,-0.0362 0.249885,-0.48942 0.555302,-1.00706 l 0.555302,-0.94116 h 26.515483 26.51549 l 0.42498,0.89119 0.42498,0.89119 -1.63275,0.15204 c -1.53226,0.14268 -53.358787,0.15609 -53.358787,0.0138 z m 81.135797,-3.75499 c -0.34987,-0.3866 -0.43788,-1.05135 -0.43788,-3.3073 0,-3.05428 0.005,-3.06303 1.52135,-2.65667 0.57502,0.1541 0.59532,0.26675 0.59532,3.30368 0,3.12195 -0.004,3.14414 -0.62045,3.14414 -0.34125,0 -0.8175,-0.21773 -1.05834,-0.48385 z m 0.42202,-18.34784 -0.8599,-0.5316 v -10.10841 -10.1084 l 1.05833,-1.03344 1.05834,-1.03343 v 11.69536 c 0,6.43245 -0.0893,11.6855 -0.19844,11.67344 -0.10914,-0.0121 -0.58539,-0.26114 -1.05833,-0.55352 z M 53.015619,157.29367 v -11.0418 l 1.058334,1.03343 1.058333,1.03344 -0.0021,9.40515 -0.0021,9.40516 -1.056296,0.60321 -1.056296,0.60322 z m -8.290276,0.26628 c -0.408903,-0.4089 -0.161092,-1.66526 0.386247,-1.95819 1.217279,-0.65147 2.462429,0.85577 1.501113,1.81708 -0.339563,0.33957 -1.595038,0.43344 -1.88736,0.14111 z m 127.876597,-0.36277 c -0.58417,-1.09153 0.3568,-2.1021 1.59223,-1.70999 0.65325,0.20733 0.96979,1.3221 0.52693,1.85571 -0.48712,0.58695 -1.77442,0.49844 -2.11916,-0.14572 z M 42.742992,141.24898 c -1.187984,-1.26456 -0.44877,-3.09181 1.250791,-3.09181 1.253345,0 1.878087,0.64004 1.878087,1.92407 0,1.67275 -1.965354,2.40625 -3.128878,1.16774 z m 131.197518,0.0333 c -0.64312,-0.6903 -0.69524,-1.72664 -0.12759,-2.53707 0.30237,-0.43169 0.67836,-0.58804 1.4142,-0.58804 1.21816,0 1.87808,0.63487 1.87808,1.80678 0,1.698 -2.02505,2.54159 -3.16469,1.31833 z M 53.015619,122.79889 v -11.23234 h 1.058334 1.058333 v 10.19891 10.19891 l -1.058333,1.03343 -1.058334,1.03344 z m -8.149166,1.28245 c -0.174625,-0.17462 -0.3175,-0.6486 -0.3175,-1.05329 0,-1.35658 2.133891,-1.33528 2.335416,0.0233 0.166108,1.11984 -1.220374,1.82752 -2.017916,1.02998 z m 127.722927,-0.24513 c -0.47649,-0.89032 0.0729,-1.81862 1.07624,-1.81862 0.59057,0 0.88134,0.16734 1.09123,0.62799 0.41966,0.92105 -0.0983,1.75326 -1.09123,1.75326 -0.51971,0 -0.87435,-0.18539 -1.07624,-0.56263 z M 95.401869,90.479255 c -0.398015,-0.398016 -0.419737,-1.099833 -0.02652,-0.85681 0.20451,0.126394 0.201745,0.01309 -0.0093,-0.38126 L 95.06576,88.680089 h 27.0275 27.02749 l -0.89058,1.035938 -0.89059,1.035936 -25.54552,0.02241 c -20.09513,0.01762 -25.62154,-0.04817 -25.901832,-0.308335 -0.285051,-0.264584 -0.318971,-0.264584 -0.169592,0 0.23627,0.418491 0.09051,0.424502 -0.32076,0.01323 z m -1.277461,-8.322409 c -0.216273,-0.861698 0.159626,-1.517932 0.9354,-1.633005 0.747943,-0.110944 1.347478,0.389281 1.347478,1.12427 0,0.780983 -0.486863,1.211145 -1.370791,1.211145 -0.575624,0 -0.774168,-0.152901 -0.912087,-0.70241 z m 28.992672,0.289727 c -0.2449,-0.295087 -0.27116,-0.615513 -0.0922,-1.124479 0.20639,-0.586854 0.41064,-0.711796 1.16362,-0.711796 0.75299,0 0.95724,0.124942 1.16363,0.711796 0.31931,0.907949 -0.157,1.537162 -1.16363,1.537162 -0.40092,0 -0.88307,-0.185707 -1.07145,-0.412683 z M 108.33274,81.63295 c -1.08689,-1.381752 -0.3329,-3.007027 1.395,-3.007027 1.08667,0 1.84899,0.763593 1.84899,1.852083 0,1.780307 -2.14998,2.545754 -3.24399,1.154944 z"
       id="path1"
       sodipodi:nodetypes="ccsscscscsssscssssscsssssscccccsccsssscssscssssssssssssssssssssscccssssscccccccccsssscssccssssssscsssccssscscccccsssssscsssssssssscccsssssssscccccccccsscsccsssssccssssscsscssssscccssssscccsscsscccsccsssscssssssssscsssscscsssssssssssssscsssscssscsscsscsscsssscsssssscscssssssssscsssssscssccssssssscsssscssssccssscsssssssssccsssssssssssssscscsccsssssccssscccsssscssssscccsssssscscccccccccsscsssssssssssssssssssscccccssssssssscccccssscccccccccssssssssssssssssscccccccccssssssssssssscccccssssssssssccsssccssss" />
  </g>
</svg>
